<?xml version="1.0" standalone="no"?>
<!DOCTYPE svg PUBLIC "-//W3C//DTD SVG 20010904//EN"
 "http://www.w3.org/TR/2001/REC-SVG-20010904/DTD/svg10.dtd">
<svg version="1.0" xmlns="http://www.w3.org/2000/svg"
 width="413.000000pt" height="531.000000pt" viewBox="0 0 413.000000 531.000000"
 preserveAspectRatio="xMidYMid meet">
<metadata>
Created by potrace 1.16, written by Peter Selinger 2001-2019
</metadata>
<g transform="translate(0.000000,531.000000) scale(0.100000,-0.100000)"
fill="#000000" stroke="none">
<path d="M1816 5050 c-49 -5 -99 -13 -110 -18 -12 -6 -52 -17 -90 -26 -61 -14
-152 -49 -196 -76 -8 -5 -40 -21 -70 -35 -107 -51 -118 -57 -153 -89 -20 -17
-53 -44 -74 -61 -43 -32 -141 -157 -198 -250 -20 -33 -47 -75 -60 -93 -13 -18
-22 -39 -19 -46 3 -7 -2 -18 -10 -25 -10 -8 -13 -24 -10 -48 2 -20 0 -41 -5
-47 -6 -7 -12 -38 -15 -69 -3 -32 -8 -67 -11 -80 -2 -12 -7 -78 -10 -146 -4
-105 -2 -129 13 -155 9 -17 20 -33 23 -36 4 -3 10 -25 14 -50 4 -25 13 -58 20
-75 8 -16 15 -39 17 -49 2 -11 13 -31 26 -44 13 -15 22 -38 22 -58 0 -30 16
-81 30 -94 3 -3 5 -9 5 -15 1 -26 18 -101 25 -110 6 -8 30 -113 30 -132 0 -2
-5 -1 -11 3 -8 5 -8 1 0 -14 6 -12 16 -24 21 -27 25 -16 52 -91 56 -159 6 -92
25 -186 37 -186 5 0 6 10 3 23 -4 12 -11 140 -17 283 l-9 261 32 64 c33 66 35
73 41 123 5 38 -11 108 -26 118 -7 4 -9 8 -5 8 4 0 -2 21 -13 46 -11 26 -17
49 -15 52 3 2 -1 17 -9 32 -29 56 23 219 89 285 75 73 140 118 212 146 41 16
86 29 99 29 13 0 27 5 30 10 3 6 20 10 36 10 17 0 40 5 52 12 13 7 71 12 138
14 74 1 134 7 165 17 54 18 92 20 274 18 127 -2 285 -21 330 -39 52 -21 65
-25 82 -23 9 1 19 -3 23 -9 3 -5 14 -10 23 -10 9 0 47 -14 84 -32 47 -23 69
-39 73 -56 3 -12 10 -20 15 -17 5 3 14 -4 20 -15 6 -11 16 -18 22 -14 7 4 6
10 -3 16 -12 8 -11 9 0 6 8 -3 16 -20 18 -39 2 -19 11 -48 19 -66 8 -17 14
-42 14 -55 1 -31 -17 -206 -19 -190 0 7 -5 10 -11 7 -18 -11 -11 -57 20 -122
33 -69 35 -77 20 -68 -5 3 -10 2 -10 -4 0 -5 5 -13 10 -16 21 -13 60 -106 60
-142 0 -21 14 -94 31 -163 25 -97 32 -153 35 -250 2 -69 4 -129 5 -135 1 -18
19 38 26 79 4 23 5 74 4 114 -3 82 15 171 37 188 8 5 16 30 18 55 5 57 34 133
67 173 14 17 35 42 46 56 14 18 21 21 22 10 2 -30 39 126 38 165 0 67 -35 279
-46 282 -6 2 -8 13 -5 25 3 12 1 19 -4 16 -5 -3 -10 16 -11 43 -3 75 -82 210
-175 299 -27 25 -48 49 -48 53 0 14 23 6 45 -15 12 -13 39 -38 59 -57 19 -18
46 -55 58 -82 13 -26 26 -48 30 -49 12 0 -10 48 -43 96 -16 24 -27 49 -23 56
4 6 3 8 -3 5 -12 -8 -36 17 -26 26 3 4 -1 7 -10 7 -10 0 -17 4 -17 9 0 5 -9
11 -20 14 -11 3 -23 13 -27 24 -5 10 -15 18 -23 18 -8 0 -14 6 -12 14 5 22
-19 71 -35 71 -8 0 -11 -4 -8 -10 4 -6 -1 -7 -11 -3 -11 4 -13 8 -6 11 7 2 12
12 12 23 0 12 -5 16 -15 13 -9 -4 -21 6 -34 27 -23 38 -21 45 8 29 34 -18 24
-4 -13 19 -19 12 -37 33 -40 47 -4 15 -13 24 -23 22 -9 -2 -18 4 -20 12 -4 13
-3 13 7 0 10 -13 11 -13 8 0 -3 8 -14 19 -26 25 -12 5 -22 13 -22 17 0 5 -6 8
-14 8 -8 0 -21 8 -28 19 -20 28 -184 119 -230 126 -23 4 -56 14 -74 21 -18 8
-46 14 -62 14 -15 0 -32 4 -38 9 -16 15 -62 22 -66 10 -3 -9 -10 -9 -23 -2
-11 6 -60 18 -110 28 -49 9 -101 20 -115 25 -42 15 -121 18 -214 10z"/>
<path d="M2685 3480 c6 -10 2 -12 -18 -8 -15 3 -25 2 -23 -1 2 -3 -28 -6 -68
-7 -39 -1 -89 -7 -109 -13 -21 -7 -54 -13 -74 -13 -26 0 -43 -7 -59 -25 -20
-22 -24 -23 -24 -8 0 17 -1 17 -19 1 -10 -9 -22 -16 -27 -15 -22 4 -35 -2 -28
-13 5 -10 4 -10 -6 -1 -13 12 -43 6 -35 -7 3 -4 -7 -11 -22 -15 -15 -3 -32
-14 -39 -23 -10 -14 -7 -21 19 -43 30 -26 34 -26 66 -13 18 8 44 14 58 14 l24
0 -20 -27 c-11 -16 -23 -41 -27 -58 l-7 -30 37 34 c20 19 36 31 36 26 0 -5 5
-4 12 3 7 7 18 12 26 12 9 0 3 -13 -17 -35 -48 -55 -40 -57 25 -8 39 29 54 29
54 -1 0 -14 12 -38 26 -55 52 -62 145 -28 147 53 1 20 3 36 4 36 2 0 21 -9 41
-19 44 -23 94 -70 86 -82 -6 -10 21 -12 54 -3 33 9 27 28 -20 69 -31 27 -37
35 -20 30 29 -8 28 6 -2 34 -32 30 -102 50 -203 58 -93 7 -95 14 -11 45 98 36
127 39 215 22 118 -23 130 -14 58 41 -31 25 -63 45 -70 45 -8 0 -21 3 -31 7
-13 5 -15 3 -9 -7z"/>
<path d="M1272 3353 c-77 -99 -90 -143 -42 -143 17 0 30 4 30 8 0 5 14 9 31
10 16 0 47 11 67 23 31 19 51 23 122 23 117 0 144 -16 53 -33 -157 -28 -230
-70 -252 -145 -5 -17 -15 -46 -23 -64 -12 -31 -11 -34 7 -45 28 -16 175 -20
175 -4 0 8 3 8 9 -2 5 -7 14 -10 20 -7 20 13 11 26 -18 26 -21 0 -32 6 -36 21
-4 12 -3 24 3 28 5 3 9 17 8 30 -1 18 9 32 34 49 l35 24 3 -36 c4 -42 44 -76
90 -76 43 0 85 51 80 97 -5 38 2 40 57 13 99 -50 105 -56 69 -72 l-29 -12 32
-4 c23 -2 33 -9 37 -28 4 -14 4 -30 0 -36 -4 -7 -3 -8 5 -4 6 4 23 30 37 58
28 55 27 105 -1 128 -20 17 -19 50 2 50 9 0 24 7 34 16 17 15 17 17 -6 40 -13
13 -34 24 -45 24 -13 0 -19 4 -14 11 4 8 0 9 -15 4 -17 -5 -20 -3 -15 12 5 16
4 16 -8 3 -17 -20 -34 -19 -51 3 -14 20 -65 25 -309 29 -69 1 -124 6 -122 10
3 4 -1 8 -10 8 -8 0 -28 -17 -44 -37z"/>
<path d="M1697 2149 c-34 -26 -34 -37 -2 -49 14 -5 25 -14 25 -20 0 -7 21 -10
53 -9 28 1 60 -1 70 -6 10 -4 17 -3 17 4 0 7 24 11 63 11 61 1 62 1 32 16
l-30 14 35 -5 c31 -4 32 -3 15 7 -11 7 -28 13 -37 15 -10 2 -27 12 -39 24 -16
16 -27 19 -52 13 -40 -10 -76 -10 -103 -1 -14 5 -29 1 -47 -14z"/>
<path d="M1308 1783 c-84 -88 -87 -92 -127 -200 -16 -43 -40 -103 -54 -133
-13 -30 -27 -62 -31 -70 -3 -8 -3 -1 0 16 l5 32 -68 -25 c-68 -24 -135 -60
-141 -75 -2 -4 -29 -15 -60 -24 -61 -17 -200 -87 -348 -176 -50 -30 -131 -71
-180 -91 -49 -20 -136 -61 -194 -90 l-105 -53 -3 -447 -2 -447 1016 0 c921 0
1015 1 1003 16 -7 8 -24 21 -39 29 -14 7 -44 31 -66 53 -28 28 -59 45 -109 62
-38 12 -78 29 -87 38 -14 12 -87 132 -148 244 -8 15 -45 71 -81 125 -77 114
-80 118 -107 198 -27 76 -35 132 -24 169 4 17 3 58 -4 100 -14 82 -24 255 -14
261 14 9 40 -30 55 -82 8 -30 23 -29 31 2 5 20 -8 185 -21 260 -2 11 -4 102
-4 203 -1 100 -5 182 -9 182 -5 0 -42 -35 -84 -77z"/>
<path d="M2897 1676 c2 -33 8 -105 15 -158 6 -54 8 -136 5 -185 -7 -88 -32
-254 -44 -283 -3 -8 -7 -30 -10 -48 -2 -18 -10 -53 -19 -77 -15 -45 -17 -152
-3 -161 4 -2 12 4 18 13 20 36 21 4 3 -51 -11 -34 -29 -64 -43 -74 -13 -8 -28
-23 -33 -31 -10 -17 -235 -240 -270 -269 -12 -9 -35 -34 -51 -56 -16 -21 -48
-46 -70 -56 -23 -10 -70 -42 -106 -72 -69 -59 -144 -102 -159 -93 -6 3 -10 1
-10 -6 0 -7 -12 -26 -27 -41 l-27 -28 1032 0 1032 0 0 453 0 454 -157 74 c-86
41 -193 98 -238 128 -81 54 -251 151 -266 151 -4 0 -25 12 -46 26 -89 61 -286
145 -302 129 -3 -3 3 -21 14 -40 10 -20 16 -38 13 -40 -3 -3 -28 42 -57 100
-28 58 -57 108 -66 111 -8 3 -13 10 -10 14 3 5 -5 21 -18 37 -13 15 -29 37
-35 48 -5 11 -23 36 -39 56 l-29 37 3 -62z"/>
<path d="M1640 1716 c14 -18 13 -19 -2 -13 -10 3 -18 4 -18 1 0 -13 101 -102
129 -114 17 -7 29 -16 26 -20 -3 -4 7 -11 23 -14 15 -4 52 -22 82 -40 78 -48
133 -63 231 -65 85 -2 86 -2 184 50 114 59 170 94 180 109 9 15 -47 1 -60 -15
-5 -6 -26 -15 -45 -18 -19 -4 -46 -10 -60 -13 -71 -15 -243 -27 -259 -17 -9 6
-32 9 -51 6 -51 -6 -51 -6 -103 9 -27 7 -45 17 -41 21 4 4 -4 7 -19 7 -14 0
-29 5 -32 11 -8 12 -56 33 -68 30 -5 -1 -6 2 -3 7 3 5 -10 23 -28 40 -26 23
-36 28 -46 19 -9 -9 -11 -9 -7 -1 4 7 -1 18 -11 25 -16 13 -16 13 -2 -5z"/>
</g>
</svg>
